<svg xmlns:inkscape="http://www.inkscape.org/namespaces/inkscape" xmlns:sodipodi="http://sodipodi.sourceforge.net/DTD/sodipodi-0.dtd" xmlns="http://www.w3.org/2000/svg" xmlns:svg="http://www.w3.org/2000/svg" width="178.45201" zoomAndPan="magnify" viewBox="0 0 133.83901 84.414146" height="112.5522" preserveAspectRatio="xMidYMid" version="1.0" id="svg102" sodipodi:docname="colleaguesfin.svg" inkscape:version="1.4.3 (0d15f75, 2025-12-25)">
  <sodipodi:namedview id="namedview1" pagecolor="#ffffff" bordercolor="#ffffff" borderopacity="0.25" inkscape:showpageshadow="2" inkscape:pageopacity="0.0" inkscape:pagecheckerboard="0" inkscape:deskcolor="#ffffff" inkscape:zoom="3.6960628" inkscape:cx="94.83064" inkscape:cy="49.376867" inkscape:window-width="1920" inkscape:window-height="1022" inkscape:window-x="0" inkscape:window-y="30" inkscape:window-maximized="1" inkscape:current-layer="g1" fill="#ffffff"/>
  <defs id="defs9" fill="#ffffff">
    <clipPath id="cc31936032" fill="#ffffff">
      <path d="m 99,26 h 54.77734 V 54 H 99 Z m 0,0" clip-rule="nonzero" id="path5" fill="#ffffff"/>
    </clipPath>
    <clipPath id="55a5c9d1ec" fill="#ffffff">
      <path d="M 37.527344,26 H 93 V 54 H 37.527344 Z m 0,0" clip-rule="nonzero" id="path6" fill="#ffffff"/>
    </clipPath>
    <clipPath id="440bdaf024" fill="#ffffff">
      <path d="m 94,10.601562 h 4 V 29 h -4 z m 0,0" clip-rule="nonzero" id="path7" fill="#ffffff"/>
    </clipPath>
  </defs>
  <g id="g1" transform="translate(0.27371115)" style="display:inline">
    <g clip-path="url(#ffffff6032)" id="g90" transform="matrix(1.1471475,0,0,1.1471475,-43.084358,-8.688095)">
      <path fill="#ffffff" d="m 153.69531,26.554688 c 0,-0.05469 -0.0156,-0.109376 -0.0273,-0.164063 -0.47266,4.734375 -2.64453,7.339844 -7.44141,8.15625 -5.22656,1.117187 -10.46094,2.210937 -15.71484,3.214844 -6.83594,1.304687 -13.69141,2.523437 -20.58594,3.460937 -1.91015,0.25 -3.8164,0.476563 -5.72265,0.726563 -0.76563,0.101562 -1.53125,0.207031 -2.29688,0.296875 -0.17969,0.01953 -0.25781,0.09766 -0.30469,0.261718 -0.14843,0.546876 -0.3125,1.085938 -0.47265,1.625 -0.0352,0.117188 -0.008,0.15625 0.10937,0.132813 1.14063,-0.21875 2.27344,-0.484375 3.42188,-0.679687 0.0352,0.0039 0.0508,0.07422 0.0391,0.09766 -1.58984,1.316406 -2.82031,2.972656 -4.07422,4.589844 -0.37109,0.488281 -0.875,0.835937 -1.351562,1.210937 0.140624,0.06641 0.253906,-0.03516 0.378906,-0.07031 0.08984,-0.02344 0.175781,-0.06641 0.261718,-0.101562 1.660158,-0.691406 3.332028,-1.359375 5.070318,-1.835938 1.63281,-0.519531 3.37109,-0.785156 4.89453,-1.589843 0.20312,-0.109375 0.38672,-0.238281 0.53125,-0.425781 0.1914,-0.257813 0.48047,-0.386719 0.76172,-0.519532 0.0977,-0.04297 0.15625,0.0039 0.15625,0.109375 -0.008,0.671875 -0.0156,1.34375 -0.0234,2.015625 0.16015,0.808594 -1.30469,0.316406 -1.90235,2.238282 -0.61328,1.839843 0.6211,4.261718 2.75391,4.089843 2.90625,0.0625 3.73828,-4.539062 1.27344,-5.769531 -0.19141,-0.08594 -0.23828,-0.222656 -0.23828,-0.417969 0.008,-0.617187 0.004,-1.238281 0.004,-1.859375 -0.0625,-0.464844 0.22657,-0.433594 0.58203,-0.527344 2.65235,-0.664062 5.29688,-1.351562 7.9375,-2.050781 0.39844,-0.175781 0.28516,0.65625 0.39063,0.886719 0.0586,0.128906 0.23437,1.480469 0.39844,1.257812 0.26172,-0.3125 0.86718,-0.511718 0.76172,-0.992187 -0.0977,-0.433594 -0.17188,-0.871094 -0.25391,-1.308594 -0.0273,-0.15625 -0.0156,-0.179687 0.14844,-0.222656 3.20312,-0.792969 6.39453,-1.644531 9.59375,-2.460937 0.30078,-0.07813 0.60156,-0.15625 0.90234,-0.234376 0.11328,-0.02344 0.14844,-0.0039 0.16797,0.109376 0.0898,0.597656 0.15625,1.199218 0.24219,1.800781 0.17578,1.371093 0.21093,0.726562 0.80859,-0.01172 0.13672,-0.550781 -0.0977,-1.152344 -0.0977,-1.714844 -0.0391,-0.488281 -0.0781,-0.441406 0.40235,-0.566406 4.83984,-1.261719 9.72265,-2.40625 14.53125,-3.78125 3.98047,-1.386719 4.19922,-5.488281 3.98437,-8.976562 z m 0,0" fill-opacity="1" fill-rule="nonzero" id="path89"/>
    </g>
    <g clip-path="url(#ffffffd1ec)" id="g91" transform="matrix(1.1471475,0,0,1.1471475,-43.084358,-8.688095)" style="stroke-width:0.24975;stroke-dasharray:#ffffff">
      <path fill="#ffffff" d="M 92.125,49.433594 C 90.773438,48.5 89.929688,47.066406 88.878906,45.84375 c -0.667968,-0.796875 -1.414062,-1.527344 -2.246094,-2.152344 -0.02734,-0.02344 -0.03516,-0.07422 -0.05078,-0.109375 1.160157,0.105469 2.328125,0.484375 3.492188,0.675781 0.113281,0.02344 0.148437,-0.01562 0.125,-0.121093 -0.07813,-0.328125 -0.160157,-0.652344 -0.234375,-0.980469 -0.05078,-0.222656 -0.08594,-0.453125 -0.125,-0.675781 C 89.8125,42.25 89.613281,42.21875 89.414062,42.199219 c -1.65625,-0.167969 -3.3125,-0.347657 -4.96875,-0.550781 -4.085937,-0.484376 -8.15625,-1.113282 -12.21875,-1.777344 -9.308593,-1.546875 -18.566406,-3.363282 -27.78125,-5.386719 -3.191406,-0.554687 -6.011718,-2.957031 -6.503906,-6.21875 -0.121094,-0.496094 -0.09766,-1.054687 -0.292968,-1.519531 -0.425782,4.140625 0.542968,8.203125 5.183593,9.1875 4.40625,1.171875 8.820313,2.300781 13.242188,3.417968 0.621093,0.164063 0.570312,0.03516 0.503906,0.761719 -0.03125,0.347657 -0.06641,0.695313 -0.101563,1.042969 -0.09375,0.539062 0.339844,0.933594 0.644532,1.328125 0.01953,-0.02734 0.05859,-0.05078 0.0625,-0.07813 0.140625,-0.839844 0.257812,-1.675781 0.371094,-2.515625 0.01953,-0.132813 0.06641,-0.160156 0.195312,-0.128906 0.472656,0.121093 0.941406,0.25 1.414062,0.371093 3.007813,0.78125 6.027344,1.539063 9.039063,2.320313 0.171875,0.0625 0.199219,0.09766 0.175781,0.261719 -0.06641,0.46875 -0.148437,0.929687 -0.210937,1.398437 -0.03516,0.386719 0.550781,0.601563 0.785156,0.859375 0.08594,0.07422 0.140625,0.04687 0.15625,-0.0625 0.105469,-0.625 0.21875,-1.246094 0.316406,-1.871094 0.03906,-0.253906 0.101563,-0.265624 0.316407,-0.207031 0.96875,0.257813 1.929687,0.535157 2.898437,0.789063 1.78125,0.464844 3.5625,0.917968 5.34375,1.378906 0.121094,0.01563 0.226563,0.08984 0.269531,0.199219 0.05469,0.691406 0.01563,1.398437 0.04687,2.097656 0.0078,0.183594 -0.04687,0.289063 -0.230469,0.363281 -1.347656,0.523438 -1.75,2.132813 -1.441406,3.421875 C 77.574219,55 82.839844,53.628906 82.152344,49.761719 82,48.769531 81.375,47.953125 80.421875,47.601562 80.25,47.546875 80.183594,47.449219 80.1875,47.273438 c 0.0078,-0.347657 0.0039,-0.699219 0.0039,-1.050782 0,-0.375 0,-0.753906 0.0039,-1.128906 0,-0.15625 0.05859,-0.191406 0.203126,-0.121094 0.382812,0.25 0.941406,0.335938 1.164062,0.761719 0.109375,0.246094 0.308594,0.40625 0.550781,0.507813 1.007813,0.441406 2.082031,0.675781 3.136719,0.976562 2.398438,0.566406 4.671875,1.535156 6.984375,2.347656 -0.03516,-0.04297 -0.0625,-0.101562 -0.109375,-0.132812 z m 0,0" fill-opacity="1" fill-rule="nonzero" id="path90" style="display:inline;stroke-width:0.24975;stroke-dasharray:#ffffff"/>
    </g>
    <path fill="#ffffff" d="m 72.965745,37.368088 c 0.009,-0.107488 -0.0448,-0.156838 -0.15683,-0.183728 -2.11058,-0.569087 -3.48626,-0.770733 -5.64612,-0.210605 -1.16059,0.255413 -2.25845,-0.528765 -3.43697,-0.376412 -1.093369,0.04933 -2.141931,0.371927 -3.217382,0.524281 -0.156838,0.0538 -0.125474,0.264382 -0.112072,0.394331 0.04485,3.629655 2.993334,11.565576 7.765654,9.495342 2.93509,-1.63558 4.23906,-5.15769 4.69166,-8.303375 0.0538,-0.443625 0.0762,-0.891735 0.11211,-1.339834 z m 0,0" fill-opacity="1" fill-rule="nonzero" id="path91" style="display:inline;stroke-width:1.14715"/>
    <path fill="#ffffff" d="m 60.418817,36.135798 c 0.340565,-0.430179 0.474989,-1.035128 0.649755,-1.554923 0.09854,-0.385373 0.309192,-0.613907 0.716968,-0.685604 1.308465,-0.291261 2.652775,-0.627342 3.997085,-0.273343 0.68112,0.224049 1.42946,0.09406 2.11506,-0.0538 1.20092,-0.22405 2.47802,-0.03579 3.61172,0.389847 0.79763,0.331605 0.90966,1.281581 1.27263,1.967186 0.0403,0.05827 0.0851,0.192686 0.17027,0.134434 -0.60943,-12.080897 -11.798591,-12.246706 -12.569336,-0.08959 -0.0092,0.06275 0,0.116504 0.03579,0.165796 z m 0,0" fill-opacity="1" fill-rule="nonzero" id="path92" style="display:inline;stroke-width:1.14715"/>
    <path fill="#ffffff" d="m 73.122585,27.702475 c 0.17476,0.233009 0.17476,0.233009 0.46154,0.156826 2.31671,-0.640785 4.65581,-1.209872 6.977,-1.823781 2.4332,-0.631825 4.86194,-1.27261 7.28618,-1.926851 0.68559,-0.138908 0.59598,-0.161313 0.59598,-0.855876 -0.0135,-0.564615 0.0583,-0.564615 -0.57358,-0.483958 -5.68198,0.828997 -11.36841,1.662469 -17.03246,2.590052 0.19269,0.201646 0.43018,0.345039 0.63183,0.524281 0.61839,0.546685 1.16508,1.156107 1.65351,1.819307 z m 0,0" fill-opacity="1" fill-rule="nonzero" id="path93" style="display:inline;stroke-width:1.14715"/>
    <path fill="#ffffff" d="m 45.28185,24.001123 c 4.835043,1.295026 9.679057,2.572123 14.523071,3.844745 0.443613,0.183716 0.788664,-0.739382 1.129217,-0.999279 0.470515,-0.555645 1.062007,-0.994795 1.631106,-1.424976 -5.610273,-1.079925 -11.399778,-1.765529 -17.072789,-2.684141 -0.555644,-0.13891 -0.457059,0.134434 -0.470504,0.573574 -0.0046,0 -0.0046,0 -0.0092,0 0.01789,0.277827 -0.08959,0.627352 0.268858,0.690077 z m 0,0" fill-opacity="1" fill-rule="nonzero" id="path94" style="display:inline;stroke-width:1.14715"/>
    <g clip-path="url(#fffffff024)" id="g95" transform="matrix(1.1471475,0,0,1.1471475,-43.084358,-8.688095)">
      <path fill="#ffffff" d="m 94.296875,28.730469 c 1.484375,-0.53125 3.257813,0.324219 3.019531,-0.148438 -0.265625,-0.953125 -0.78125,-1.859375 -0.820312,-2.855469 0.01563,-2.355468 -0.03906,-4.707031 -0.0625,-7.0625 0.0039,0 0.0078,0 0.0078,0 -0.08203,-2.113281 -0.109375,-4.226562 -0.164062,-6.335937 -0.07031,-0.558594 0.214844,-1.640625 -0.578125,-1.726563 -0.449219,0.01563 -0.527344,0.589844 -0.511719,0.957032 -0.02734,1.199218 -0.05859,2.394531 -0.08203,3.59375 -0.08203,3.335937 -0.117188,6.671875 -0.125,10.007812 0.01953,0.6875 -0.15625,1.328125 -0.386719,1.964844 -0.148438,0.492188 -0.292969,0.980469 -0.433594,1.472656 -0.03906,0.136719 0,0.171875 0.136719,0.132813 z m 0,0" fill-opacity="1" fill-rule="nonzero" id="path95"/>
    </g>
    <path fill="#ffffff" d="m 67.861835,34.137251 c -3.07399,0.622865 -2.52283,-1.303987 -2.97093,1.761054 -0.0179,0.322635 1.36224,0.53324 1.75657,0.56013 0.49739,-0.107488 1.10234,-0.233021 1.70727,-0.362971 0.10749,-0.02237 0.1434,-0.107488 0.12099,-0.210604 -0.1165,-0.524281 -0.23302,-1.053046 -0.35399,-1.577327 -0.0404,-0.179242 -0.0762,-0.197172 -0.25991,-0.170282 z m 0,0" fill-opacity="1" fill-rule="nonzero" id="path96" style="display:inline;stroke-width:1.14715"/>
    <path fill="#ffffff" d="m 62.722071,36.135798 c 1.626624,-0.224048 1.501154,0.371929 1.698314,-1.317428 0.0269,-0.264384 0.19718,-0.515323 0.0941,-0.797624 -0.30919,0.06723 -0.92757,-0.116504 -1.08441,0.192686 -0.24198,0.600451 -0.48394,1.196441 -0.725922,1.796893 -0.02684,0.06723 -0.0179,0.120989 0.01789,0.125473 z m 0,0" fill-opacity="1" fill-rule="nonzero" id="path99" style="display:inline;stroke-width:1.14715"/>
    <path fill="#ffffff" d="m 69.479495,34.052109 c -0.24198,0.01342 -0.84692,-0.286788 -0.76178,0.170282 0.11207,0.600463 0.21957,1.205399 0.37641,1.796903 0.22853,0.0179 0.45706,0.04037 0.68111,0.06275 0,-0.01343 0.005,-0.02238 0.005,-0.03579 0.1434,-0.04039 0.69904,0.107488 0.64527,-0.125476 -0.20164,-0.53324 -0.40777,-1.066491 -0.60493,-1.599731 -0.0627,-0.156838 -0.17029,-0.246454 -0.34057,-0.268869 z m 0,0" fill-opacity="1" fill-rule="nonzero" id="path100" style="display:inline;stroke-width:1.14715"/>
    <path fill="#ffffff" d="m 62.834105,34.173098 c -0.421224,0.08064 -1.021676,0.02684 -1.236766,0.470514 -0.107488,0.416736 -0.851402,1.586288 -0.595989,1.895478 0.470514,-0.10302 0.972391,-0.06722 1.138188,-0.591492 0.174768,-0.412262 0.367443,-0.815553 0.524281,-1.232289 0.06722,-0.174768 0.224056,-0.32712 0.170286,-0.542211 z m 0,0" fill-opacity="1" fill-rule="nonzero" id="path101" style="display:inline;stroke-width:1.14715"/>
    <path fill="#ffffff" d="m 70.962725,35.86693 c 0.0672,0.188213 0.19716,0.300233 0.39433,0.358484 0.2106,0.0179 1.06201,0.537725 1.04407,0.13892 -0.21956,-0.537725 -0.53772,-1.039603 -0.79313,-1.568368 -0.20614,-0.407777 -0.5691,-0.546685 -0.9948,-0.573575 -0.18373,-0.0092 -0.22405,0.03131 -0.1658,0.210604 0.1658,0.479475 0.34056,0.954462 0.51533,1.433935 z m 0,0" fill-opacity="1" fill-rule="nonzero" id="path102" style="display:inline;stroke-width:1.14715"/>
    <path id="path104" style="display:inline;fill:#ffffff;fill-opacity:1;stroke-width:1.09587" d="m 66.719835,0 -34.179174,53.13903 4.072069,0.0033 30.107105,-46.5970242 30.02198,46.7180142 3.913515,0.0033 z"/>
  </g>
  <g id="g2">
    <text xml:space="preserve" style="font-style:normal;font-variant:normal;font-weight:500;font-stretch:normal;font-size:21.376px;line-height:17.5871px;font-family:Roboto;-inkscape-font-specification:'Roboto Medium';text-align:start;writing-mode:lr-tb;direction:ltr;text-anchor:start;display:inline;fill:#ffffff;fill-opacity:1;stroke:#ffffff;stroke-width:1.002" x="0.17548059" y="73.009239" id="text125" transform="scale(1.0133512,0.98682471)"><tspan id="tspan125" style="font-style:normal;font-variant:normal;font-weight:500;font-stretch:normal;font-size:21.376px;line-height:17.5871px;font-family:Roboto;-inkscape-font-specification:'Roboto Medium';fill:#ffffff;stroke-width:1.002" x="0.17548059" y="73.009239">COLLEAGUES</tspan></text>
    <text xml:space="preserve" style="font-style:normal;font-variant:normal;font-weight:500;font-stretch:normal;font-size:11.4715px;line-height:7.28725px;font-family:Poppins;-inkscape-font-specification:'Poppins Medium';text-align:start;writing-mode:lr-tb;direction:ltr;text-anchor:start;display:inline;fill:#ffffff;fill-opacity:1;stroke:#ffffff;stroke-width:0;stroke-dasharray:#ffffff" x="22.288193" y="83.866173" id="text126"><tspan id="tspan126" style="font-style:normal;font-variant:normal;font-weight:normal;font-stretch:normal;font-size:11.4715px;font-family:Roboto;-inkscape-font-specification:Roboto;stroke-width:0" x="22.288193" y="83.866173" fill="#ffffff">TRAVEL &amp; TOURS</tspan></text>
  </g>
</svg>