<?xml version="1.0" encoding="UTF-8" standalone="no"?>
<svg
   width="178.45201"
   zoomAndPan="magnify"
   viewBox="0 0 133.83901 84.414146"
   height="112.5522"
   preserveAspectRatio="xMidYMid"
   version="1.0"
   id="svg102"
   xmlns:xlink="http://www.w3.org/1999/xlink"
   xmlns="http://www.w3.org/2000/svg"
   xmlns:svg="http://www.w3.org/2000/svg">
  <defs
     id="defs9">
    <linearGradient
       id="swatch12">
      <stop
         style="stop-color:#ffffff;stop-opacity:1;"
         offset="0.92295349"
         id="stop12" />
    </linearGradient>
    <clipPath
       id="cc31936032">
      <path
         d="m 99,26 h 54.77734 V 54 H 99 Z m 0,0"
         clip-rule="nonzero"
         id="path5" />
    </clipPath>
    <clipPath
       id="55a5c9d1ec">
      <path
         d="M 37.527344,26 H 93 V 54 H 37.527344 Z m 0,0"
         clip-rule="nonzero"
         id="path6" />
    </clipPath>
    <clipPath
       id="440bdaf024">
      <path
         d="m 94,10.601562 h 4 V 29 h -4 z m 0,0"
         clip-rule="nonzero"
         id="path7" />
    </clipPath>
    <linearGradient
       xlink:href="#swatch12"
       id="linearGradient29"
       gradientUnits="userSpaceOnUse"
       x1="26.80993"
       y1="40.977837"
       x2="108.56331"
       y2="40.977837" />
  </defs>
  <rect
     style="fill:#000000;fill-opacity:1;fill-rule:nonzero;stroke:none;stroke-width:0.48032;stroke-opacity:1"
     id="rect12"
     width="43.526054"
     height="27.901316"
     x="46.366905"
     y="22.01667"
     ry="2.4933085" />
  <g
     id="g1"
     transform="matrix(0.47876266,0,0,0.71807,36.012897,7.2597484)"
     style="fill:url(#linearGradient29);stroke:none;stroke-opacity:1">
    <g
       clip-path="url(#55a5c9d1ec)"
       id="g91"
       transform="matrix(0.7035942,0,0,0.72721534,0.38446625,17.696629)"
       style="fill:url(#linearGradient29);stroke:none;stroke-width:0.24975;stroke-dasharray:none;stroke-opacity:1">
      <path
         fill="#000000"
         d="M 92.125,49.433594 C 90.773438,48.5 89.929688,47.066406 88.878906,45.84375 c -0.667968,-0.796875 -1.414062,-1.527344 -2.246094,-2.152344 -0.02734,-0.02344 -0.03516,-0.07422 -0.05078,-0.109375 1.160157,0.105469 2.328125,0.484375 3.492188,0.675781 0.113281,0.02344 0.148437,-0.01562 0.125,-0.121093 -0.07813,-0.328125 -0.160157,-0.652344 -0.234375,-0.980469 -0.05078,-0.222656 -0.08594,-0.453125 -0.125,-0.675781 C 89.8125,42.25 89.613281,42.21875 89.414062,42.199219 c -1.65625,-0.167969 -3.3125,-0.347657 -4.96875,-0.550781 -4.085937,-0.484376 -8.15625,-1.113282 -12.21875,-1.777344 -9.308593,-1.546875 -18.566406,-3.363282 -27.78125,-5.386719 -3.191406,-0.554687 -6.011718,-2.957031 -6.503906,-6.21875 -0.121094,-0.496094 -0.09766,-1.054687 -0.292968,-1.519531 -0.425782,4.140625 0.542968,8.203125 5.183593,9.1875 4.40625,1.171875 8.820313,2.300781 13.242188,3.417968 0.621093,0.164063 0.570312,0.03516 0.503906,0.761719 -0.03125,0.347657 -0.06641,0.695313 -0.101563,1.042969 -0.09375,0.539062 0.339844,0.933594 0.644532,1.328125 0.01953,-0.02734 0.05859,-0.05078 0.0625,-0.07813 0.140625,-0.839844 0.257812,-1.675781 0.371094,-2.515625 0.01953,-0.132813 0.06641,-0.160156 0.195312,-0.128906 0.472656,0.121093 0.941406,0.25 1.414062,0.371093 3.007813,0.78125 6.027344,1.539063 9.039063,2.320313 0.171875,0.0625 0.199219,0.09766 0.175781,0.261719 -0.06641,0.46875 -0.148437,0.929687 -0.210937,1.398437 -0.03516,0.386719 0.550781,0.601563 0.785156,0.859375 0.08594,0.07422 0.140625,0.04687 0.15625,-0.0625 0.105469,-0.625 0.21875,-1.246094 0.316406,-1.871094 0.03906,-0.253906 0.101563,-0.265624 0.316407,-0.207031 0.96875,0.257813 1.929687,0.535157 2.898437,0.789063 1.78125,0.464844 3.5625,0.917968 5.34375,1.378906 0.121094,0.01563 0.226563,0.08984 0.269531,0.199219 0.05469,0.691406 0.01563,1.398437 0.04687,2.097656 0.0078,0.183594 -0.04687,0.289063 -0.230469,0.363281 -1.347656,0.523438 -1.75,2.132813 -1.441406,3.421875 C 77.574219,55 82.839844,53.628906 82.152344,49.761719 82,48.769531 81.375,47.953125 80.421875,47.601562 80.25,47.546875 80.183594,47.449219 80.1875,47.273438 c 0.0078,-0.347657 0.0039,-0.699219 0.0039,-1.050782 0,-0.375 0,-0.753906 0.0039,-1.128906 0,-0.15625 0.05859,-0.191406 0.203126,-0.121094 0.382812,0.25 0.941406,0.335938 1.164062,0.761719 0.109375,0.246094 0.308594,0.40625 0.550781,0.507813 1.007813,0.441406 2.082031,0.675781 3.136719,0.976562 2.398438,0.566406 4.671875,1.535156 6.984375,2.347656 -0.03516,-0.04297 -0.0625,-0.101562 -0.109375,-0.132812 z m 0,0"
         fill-opacity="1"
         fill-rule="nonzero"
         id="path90"
         style="fill:url(#linearGradient29);stroke:none;stroke-width:0.24975;stroke-dasharray:none;stroke-opacity:1" />
    </g>
    <path
       fill="#000000"
       d="m 71.562915,46.893189 c 0.0055,-0.06814 -0.02748,-0.09942 -0.09619,-0.11647 -1.294508,-0.360764 -2.13827,-0.488595 -3.463004,-0.13351 -0.71184,0.161915 -1.385203,-0.335202 -2.108039,-0.23862 -0.67061,0.03127 -1.313738,0.235776 -1.973358,0.332359 -0.0962,0.03411 -0.07696,0.167601 -0.06873,0.24998 0.02751,2.300959 1.835938,7.331807 4.763004,6.019416 1.800216,-1.036849 2.599996,-3.269633 2.877594,-5.263788 0.03299,-0.28123 0.04674,-0.565301 0.06876,-0.849367 z m 0,0"
       fill-opacity="1"
       fill-rule="nonzero"
       id="path91"
       style="fill:url(#linearGradient29);stroke:none;stroke-width:0.715307;stroke-opacity:1" />
    <path
       fill="#000000"
       d="m 63.867352,46.111999 c 0.208883,-0.272704 0.291331,-0.656202 0.398522,-0.985717 0.06044,-0.244301 0.189641,-0.389176 0.439747,-0.434628 0.802537,-0.18464 1.627059,-0.397693 2.451582,-0.173281 0.41776,0.142032 0.876748,0.05963 1.297256,-0.0341 0.736575,-0.142033 1.519875,-0.02269 2.215221,0.247136 0.48922,0.210216 0.557933,0.812437 0.780558,1.247066 0.02472,0.03694 0.0522,0.12215 0.104434,0.08522 -0.37379,-7.658486 -7.236576,-7.763598 -7.709307,-0.0568 -0.0057,0.03978 0,0.07386 0.02195,0.105103 z m 0,0"
       fill-opacity="1"
       fill-rule="nonzero"
       id="path92"
       style="fill:url(#linearGradient29);stroke:none;stroke-width:0.715307;stroke-opacity:1" />
    <path
       fill="#000000"
       d="m 71.659112,40.765833 c 0.107188,0.147713 0.107188,0.147713 0.283082,0.09942 1.420936,-0.406215 2.855605,-0.766978 4.27929,-1.156155 1.492384,-0.400536 2.982033,-0.806751 4.468923,-1.221497 0.420501,-0.08806 0.365539,-0.102261 0.365539,-0.542568 -0.0083,-0.357928 0.03576,-0.357928 -0.3518,-0.306797 -3.484999,0.525529 -6.972729,1.053895 -10.446731,1.641921 0.118186,0.12783 0.263848,0.218731 0.387529,0.332359 0.379285,0.346562 0.714592,0.732895 1.014168,1.15332 z m 0,0"
       fill-opacity="1"
       fill-rule="nonzero"
       id="path93"
       style="fill:url(#linearGradient29);stroke:none;stroke-width:0.715307;stroke-opacity:1" />
    <path
       fill="#000000"
       d="m 54.583208,38.419422 c 2.965537,0.82096 5.936577,1.630555 8.907615,2.437313 0.272087,0.116463 0.483722,-0.468719 0.692597,-0.633477 0.288587,-0.352242 0.651374,-0.630634 1.000427,-0.90334 -3.441018,-0.684601 -6.991968,-1.119228 -10.471466,-1.701567 -0.3408,-0.08806 -0.280334,0.08522 -0.28858,0.363608 -0.0028,0 -0.0028,0 -0.0057,0 0.01097,0.176123 -0.05495,0.397699 0.164902,0.437463 z m 0,0"
       fill-opacity="1"
       fill-rule="nonzero"
       id="path94"
       style="fill:url(#linearGradient29);stroke:none;stroke-width:0.715307;stroke-opacity:1" />
    <g
       clip-path="url(#cc31936032)"
       id="g90"
       transform="matrix(0.7035942,0,0,0.72721534,0.38446625,17.696629)"
       style="fill:url(#linearGradient29);stroke:none;stroke-opacity:1">
      <path
         fill="#000000"
         d="m 153.69531,26.554688 c 0,-0.05469 -0.0156,-0.109376 -0.0273,-0.164063 -0.47266,4.734375 -2.64453,7.339844 -7.44141,8.15625 -5.22656,1.117187 -10.46094,2.210937 -15.71484,3.214844 -6.83594,1.304687 -13.69141,2.523437 -20.58594,3.460937 -1.91015,0.25 -3.8164,0.476563 -5.72265,0.726563 -0.76563,0.101562 -1.53125,0.207031 -2.29688,0.296875 -0.17969,0.01953 -0.25781,0.09766 -0.30469,0.261718 -0.14843,0.546876 -0.3125,1.085938 -0.47265,1.625 -0.0352,0.117188 -0.008,0.15625 0.10937,0.132813 1.14063,-0.21875 2.27344,-0.484375 3.42188,-0.679687 0.0352,0.0039 0.0508,0.07422 0.0391,0.09766 -1.58984,1.316406 -2.82031,2.972656 -4.07422,4.589844 -0.37109,0.488281 -0.875,0.835937 -1.351562,1.210937 0.140624,0.06641 0.253906,-0.03516 0.378906,-0.07031 0.08984,-0.02344 0.175781,-0.06641 0.261718,-0.101562 1.660158,-0.691406 3.332028,-1.359375 5.070318,-1.835938 1.63281,-0.519531 3.37109,-0.785156 4.89453,-1.589843 0.20312,-0.109375 0.38672,-0.238281 0.53125,-0.425781 0.1914,-0.257813 0.48047,-0.386719 0.76172,-0.519532 0.0977,-0.04297 0.15625,0.0039 0.15625,0.109375 -0.008,0.671875 -0.0156,1.34375 -0.0234,2.015625 0.16015,0.808594 -1.30469,0.316406 -1.90235,2.238282 -0.61328,1.839843 0.6211,4.261718 2.75391,4.089843 2.90625,0.0625 3.73828,-4.539062 1.27344,-5.769531 -0.19141,-0.08594 -0.23828,-0.222656 -0.23828,-0.417969 0.008,-0.617187 0.004,-1.238281 0.004,-1.859375 -0.0625,-0.464844 0.22657,-0.433594 0.58203,-0.527344 2.65235,-0.664062 5.29688,-1.351562 7.9375,-2.050781 0.39844,-0.175781 0.28516,0.65625 0.39063,0.886719 0.0586,0.128906 0.23437,1.480469 0.39844,1.257812 0.26172,-0.3125 0.86718,-0.511718 0.76172,-0.992187 -0.0977,-0.433594 -0.17188,-0.871094 -0.25391,-1.308594 -0.0273,-0.15625 -0.0156,-0.179687 0.14844,-0.222656 3.20312,-0.792969 6.39453,-1.644531 9.59375,-2.460937 0.30078,-0.07813 0.60156,-0.15625 0.90234,-0.234376 0.11328,-0.02344 0.14844,-0.0039 0.16797,0.109376 0.0898,0.597656 0.15625,1.199218 0.24219,1.800781 0.17578,1.371093 0.21093,0.726562 0.80859,-0.01172 0.13672,-0.550781 -0.0977,-1.152344 -0.0977,-1.714844 -0.0391,-0.488281 -0.0781,-0.441406 0.40235,-0.566406 4.83984,-1.261719 9.72265,-2.40625 14.53125,-3.78125 3.98047,-1.386719 4.19922,-5.488281 3.98437,-8.976562 z m 0,0"
         fill-opacity="1"
         fill-rule="nonzero"
         id="path89"
         style="fill:url(#linearGradient29);stroke:none;stroke-opacity:1" />
    </g>
    <g
       clip-path="url(#440bdaf024)"
       id="g95"
       transform="matrix(0.7035942,0,0,0.72721534,0.38446625,17.696629)"
       style="fill:url(#linearGradient29);stroke:none;stroke-opacity:1">
      <path
         fill="#000000"
         d="m 94.296875,28.730469 c 1.484375,-0.53125 3.257813,0.324219 3.019531,-0.148438 -0.265625,-0.953125 -0.78125,-1.859375 -0.820312,-2.855469 0.01563,-2.355468 -0.03906,-4.707031 -0.0625,-7.0625 0.0039,0 0.0078,0 0.0078,0 -0.08203,-2.113281 -0.109375,-4.226562 -0.164062,-6.335937 -0.07031,-0.558594 0.214844,-1.640625 -0.578125,-1.726563 -0.449219,0.01563 -0.527344,0.589844 -0.511719,0.957032 -0.02734,1.199218 -0.05859,2.394531 -0.08203,3.59375 -0.08203,3.335937 -0.117188,6.671875 -0.125,10.007812 0.01953,0.6875 -0.15625,1.328125 -0.386719,1.964844 -0.148438,0.492188 -0.292969,0.980469 -0.433594,1.472656 -0.03906,0.136719 0,0.171875 0.136719,0.132813 z m 0,0"
         fill-opacity="1"
         fill-rule="nonzero"
         id="path95"
         style="fill:url(#linearGradient29);stroke:none;stroke-opacity:1" />
    </g>
    <path
       fill="#000000"
       d="m 68.43247,44.845053 c -1.885408,0.394856 -1.547358,-0.82664 -1.822197,1.116392 -0.01098,0.204529 0.83552,0.338039 1.077379,0.355085 0.30507,-0.06814 0.676112,-0.14772 1.047141,-0.2301 0.06593,-0.01418 0.08795,-0.06814 0.07421,-0.133509 -0.07145,-0.332359 -0.14292,-0.66756 -0.217117,-0.99992 -0.02478,-0.113627 -0.04673,-0.124994 -0.159414,-0.107948 z m 0,0"
       fill-opacity="1"
       fill-rule="nonzero"
       id="path96"
       style="fill:url(#linearGradient29);stroke:none;stroke-width:0.715307;stroke-opacity:1" />
    <path
       fill="#000000"
       d="m 65.280035,46.111999 c 0.997678,-0.142031 0.920722,0.235779 1.041648,-0.835162 0.0165,-0.167601 0.120939,-0.326679 0.05772,-0.50564 -0.18964,0.04262 -0.568918,-0.07386 -0.665115,0.122151 -0.148416,0.380645 -0.296821,0.758464 -0.445239,1.13911 -0.01646,0.04262 -0.01098,0.0767 0.01097,0.07954 z m 0,0"
       fill-opacity="1"
       fill-rule="nonzero"
       id="path99"
       style="fill:url(#linearGradient29);stroke:none;stroke-width:0.715307;stroke-opacity:1" />
    <path
       fill="#000000"
       d="m 69.42465,44.791079 c -0.148417,0.0085 -0.519452,-0.181804 -0.467232,0.107948 0.06873,0.380653 0.134671,0.764143 0.230869,1.139117 0.140167,0.01134 0.280334,0.02559 0.417753,0.03978 0,-0.0085 0.0031,-0.01419 0.0031,-0.02269 0.08795,-0.0256 0.42875,0.06814 0.395771,-0.07954 -0.123674,-0.338038 -0.250102,-0.676084 -0.371029,-1.014123 -0.03846,-0.09942 -0.104446,-0.156235 -0.208886,-0.170445 z m 0,0"
       fill-opacity="1"
       fill-rule="nonzero"
       id="path100"
       style="fill:url(#linearGradient29);stroke:none;stroke-width:0.715307;stroke-opacity:1" />
    <path
       fill="#000000"
       d="m 65.34875,44.867778 c -0.258354,0.05112 -0.626636,0.01702 -0.75856,0.298275 -0.06593,0.264183 -0.522201,1.005601 -0.365546,1.201607 0.288586,-0.06531 0.596409,-0.04261 0.698099,-0.374967 0.107193,-0.261346 0.225369,-0.517006 0.321564,-0.781189 0.04123,-0.110792 0.137423,-0.207373 0.104443,-0.343726 z m 0,0"
       fill-opacity="1"
       fill-rule="nonzero"
       id="path101"
       style="fill:url(#linearGradient29);stroke:none;stroke-width:0.715307;stroke-opacity:1" />
    <path
       fill="#000000"
       d="m 70.334378,45.941555 c 0.04122,0.119315 0.120926,0.190328 0.24186,0.227255 0.129169,0.01135 0.651375,0.340882 0.640371,0.08807 -0.134665,-0.340881 -0.329806,-0.659039 -0.48646,-0.994241 -0.126434,-0.258504 -0.349053,-0.346562 -0.610152,-0.363608 -0.11269,-0.0059 -0.13742,0.01985 -0.101693,0.133509 0.101693,0.303955 0.20888,0.605065 0.316074,0.909019 z m 0,0"
       fill-opacity="1"
       fill-rule="nonzero"
       id="path102"
       style="fill:url(#linearGradient29);stroke:none;stroke-width:0.715307;stroke-opacity:1" />
    <path
       id="path104"
       style="display:inline;fill:url(#linearGradient29);stroke:none;stroke-width:0.683333;stroke-opacity:1"
       d="m 67.732034,23.204304 -20.963537,33.686615 2.497573,0.0021 18.465964,-29.539418 18.413753,29.616117 2.400325,0.0021 z" />
  </g>
</svg>
